<svg xmlns="http://www.w3.org/2000/svg" viewBox="0 0 420 380" width="420" height="380">
  <defs>
    <linearGradient id="bgF" x1="0%" y1="0%" x2="100%" y2="100%">
      <stop offset="0%" style="stop-color:#080c18"/>
      <stop offset="100%" style="stop-color:#0d1528"/>
    </linearGradient>
  </defs>

  <rect width="420" height="380" fill="url(#bgF)" rx="10"/>
  <text x="210" y="22" text-anchor="middle" font-family="monospace" font-size="11" fill="#4a90d9" letter-spacing="3" opacity="0.8">PROJECT STRUCTURE</text>

  <!-- Tree -->
  <g font-family="monospace" font-size="11">
    <!-- Root -->
    <text x="20" y="50" fill="#f1c40f">📁 MaxEnt-Kernel/</text>

    <!-- Level 1 branches -->
    <line x1="30" y1="55" x2="30" y2="340" stroke="#4a90d9" stroke-width="0.8" opacity="0.3"/>

    <!-- Program/ -->
    <line x1="30" y1="75" x2="50" y2="75" stroke="#4a90d9" stroke-width="0.8" opacity="0.3"/>
    <text x="55" y="78" fill="#f1c40f">📁 Program/</text>

    <line x1="60" y1="83" x2="60" y2="175" stroke="#4a90d9" stroke-width="0.8" opacity="0.3"/>
    <line x1="60" y1="98" x2="80" y2="98" stroke="#4a90d9" stroke-width="0.8" opacity="0.3"/>
    <text x="85" y="101" fill="#82e0aa">📁 core/</text>

    <line x1="90" y1="106" x2="90" y2="155" stroke="#4a90d9" stroke-width="0.8" opacity="0.3"/>
    <line x1="90" y1="118" x2="110" y2="118" stroke="#4a90d9" stroke-width="0.8" opacity="0.3"/>
    <text x="115" y="121" fill="#7fb3e8">__init__.py</text>
    <line x1="90" y1="133" x2="110" y2="133" stroke="#4a90d9" stroke-width="0.8" opacity="0.3"/>
    <text x="115" y="136" fill="#7fb3e8">memory_kernel.py</text>
    <line x1="90" y1="148" x2="110" y2="148" stroke="#4a90d9" stroke-width="0.8" opacity="0.3"/>
    <text x="115" y="151" fill="#7fb3e8">lindblad.py</text>

    <line x1="60" y1="170" x2="80" y2="170" stroke="#4a90d9" stroke-width="0.8" opacity="0.3"/>
    <text x="85" y="173" fill="#82e0aa">📁 spectral/</text>

    <!-- Installer/ -->
    <line x1="30" y1="198" x2="50" y2="198" stroke="#4a90d9" stroke-width="0.8" opacity="0.3"/>
    <text x="55" y="201" fill="#f1c40f">📁 Installer/</text>
    <line x1="60" y1="206" x2="60" y2="220" stroke="#4a90d9" stroke-width="0.8" opacity="0.3"/>
    <line x1="60" y1="218" x2="80" y2="218" stroke="#4a90d9" stroke-width="0.8" opacity="0.3"/>
    <text x="85" y="221" fill="#7fb3e8">MAXENT-Kernel.exe</text>

    <!-- svg/ -->
    <line x1="30" y1="240" x2="50" y2="240" stroke="#4a90d9" stroke-width="0.8" opacity="0.3"/>
    <text x="55" y="243" fill="#f1c40f">📁 svg/</text>
    <line x1="60" y1="248" x2="60" y2="310" stroke="#4a90d9" stroke-width="0.8" opacity="0.3"/>
    <line x1="60" y1="258" x2="80" y2="258" stroke="#4a90d9" stroke-width="0.8" opacity="0.3"/>
    <text x="85" y="261" fill="#c39bd3">kernel_architecture.svg</text>
    <line x1="60" y1="273" x2="80" y2="273" stroke="#4a90d9" stroke-width="0.8" opacity="0.3"/>
    <text x="85" y="276" fill="#c39bd3">equations.svg</text>
    <line x1="60" y1="288" x2="80" y2="288" stroke="#4a90d9" stroke-width="0.8" opacity="0.3"/>
    <text x="85" y="291" fill="#c39bd3">spectral_densities.svg</text>
    <line x1="60" y1="303" x2="80" y2="303" stroke="#4a90d9" stroke-width="0.8" opacity="0.3"/>
    <text x="85" y="306" fill="#c39bd3">markovianity_dial.svg</text>

    <!-- Root files -->
    <line x1="30" y1="325" x2="50" y2="325" stroke="#4a90d9" stroke-width="0.8" opacity="0.3"/>
    <text x="55" y="328" fill="#e74c3c">README.md</text>
    <line x1="30" y1="340" x2="50" y2="340" stroke="#4a90d9" stroke-width="0.8" opacity="0.3"/>
    <text x="55" y="343" fill="#f1c40f" opacity="0.7">LICENSE</text>
  </g>

  <text x="210" y="368" text-anchor="middle" font-family="monospace" font-size="8" fill="#4a90d9" opacity="0.3">svg/ folder ships with README · no external dependencies</text>
</svg>
